<svg width="15" height="15" viewBox="0 0 15 15" fill="none" xmlns="http://www.w3.org/2000/svg">
<path d="M11.875 0.624878H3.125C2.2965 0.62587 1.50222 0.955429 0.916387 1.54127C0.330551 2.1271 0.000992411 2.92138 0 3.74988L0 11.2499C0.000992411 12.0784 0.330551 12.8727 0.916387 13.4585C1.50222 14.0443 2.2965 14.3739 3.125 14.3749H11.875C12.7035 14.3739 13.4978 14.0443 14.0836 13.4585C14.6694 12.8727 14.999 12.0784 15 11.2499V3.74988C14.999 2.92138 14.6694 2.1271 14.0836 1.54127C13.4978 0.955429 12.7035 0.62587 11.875 0.624878ZM3.125 1.87488H11.875C12.2492 1.87561 12.6147 1.98832 12.9243 2.19851C13.234 2.40869 13.4737 2.70672 13.6125 3.05425L8.82625 7.84113C8.47402 8.19195 7.99713 8.38892 7.5 8.38892C7.00287 8.38892 6.52598 8.19195 6.17375 7.84113L1.3875 3.05425C1.52634 2.70672 1.76601 2.40869 2.07565 2.19851C2.3853 1.98832 2.75076 1.87561 3.125 1.87488ZM11.875 13.1249H3.125C2.62772 13.1249 2.15081 12.9273 1.79917 12.5757C1.44754 12.2241 1.25 11.7472 1.25 11.2499V4.68738L5.29 8.72488C5.87664 9.31004 6.67141 9.63865 7.5 9.63865C8.32859 9.63865 9.12336 9.31004 9.71 8.72488L13.75 4.68738V11.2499C13.75 11.7472 13.5525 12.2241 13.2008 12.5757C12.8492 12.9273 12.3723 13.1249 11.875 13.1249Z" fill="#374957"/>
</svg>
